<svg width="16" height="16" viewBox="0 0 16 16" fill="none" xmlns="http://www.w3.org/2000/svg">
<path d="M13.3333 7.99998C13.3331 6.81123 12.9359 5.65661 12.2045 4.71944C11.4732 3.78228 10.4497 3.1163 9.29667 2.82727C8.1436 2.53824 6.92701 2.64272 5.84011 3.12412C4.7532 3.60552 3.85827 4.43624 3.29744 5.48437C2.73661 6.53251 2.54202 7.73796 2.74458 8.90933C2.94714 10.0807 3.53522 11.1508 4.41546 11.9497C5.29569 12.7487 6.41761 13.2306 7.60306 13.3191C8.78851 13.4076 9.96953 13.0974 10.9586 12.438L11.6986 13.5473C10.6041 14.2791 9.31656 14.6688 7.99992 14.6666C4.31792 14.6666 1.33325 11.682 1.33325 7.99998C1.33325 4.31798 4.31792 1.33331 7.99992 1.33331C11.6819 1.33331 14.6666 4.31798 14.6666 7.99998V8.99998C14.6667 9.49915 14.5066 9.98518 14.2101 10.3867C13.9135 10.7882 13.496 11.084 13.0188 11.2307C12.5417 11.3773 12.0301 11.3671 11.5592 11.2015C11.0883 11.0359 10.6829 10.7237 10.4026 10.3106C9.95763 10.7733 9.38856 11.0977 8.76373 11.2447C8.1389 11.3918 7.4849 11.3553 6.88029 11.1397C6.27569 10.9241 5.74621 10.5385 5.35546 10.0292C4.9647 9.51992 4.72931 8.90866 4.67755 8.26885C4.62579 7.62903 4.75986 6.98788 5.06367 6.42243C5.36747 5.85697 5.82809 5.39126 6.39016 5.08125C6.95224 4.77124 7.59188 4.63011 8.23222 4.67482C8.87257 4.71954 9.48638 4.94819 9.99992 5.33331H11.3333V8.99998C11.3333 9.2652 11.4386 9.51955 11.6261 9.70709C11.8137 9.89462 12.068 9.99998 12.3333 9.99998C12.5985 9.99998 12.8528 9.89462 13.0404 9.70709C13.2279 9.51955 13.3333 9.2652 13.3333 8.99998V7.99998ZM7.99992 5.99998C7.46949 5.99998 6.96078 6.21069 6.5857 6.58577C6.21063 6.96084 5.99992 7.46955 5.99992 7.99998C5.99992 8.53041 6.21063 9.03912 6.5857 9.41419C6.96078 9.78927 7.46949 9.99998 7.99992 9.99998C8.53035 9.99998 9.03906 9.78927 9.41413 9.41419C9.78921 9.03912 9.99992 8.53041 9.99992 7.99998C9.99992 7.46955 9.78921 6.96084 9.41413 6.58577C9.03906 6.21069 8.53035 5.99998 7.99992 5.99998Z" fill="black"/>
</svg>
