<svg width="16" height="16" viewBox="0 0 16 16" fill="none" xmlns="http://www.w3.org/2000/svg">
<path d="M8.66659 13.292C10.0114 13.1209 11.2407 12.4441 12.1045 11.3992C12.9682 10.3543 13.4017 9.01967 13.3168 7.66663C13.2319 6.31359 12.635 5.04364 11.6474 4.1149C10.6598 3.18616 9.35562 2.66833 7.99992 2.66665C6.64256 2.66564 5.33588 3.18221 4.34614 4.1111C3.35641 5.03999 2.75808 6.31131 2.67308 7.66601C2.58808 9.0207 3.02281 10.3568 3.88868 11.4022C4.75455 12.4475 5.98641 13.1233 7.33325 13.292V9.33331H5.99992V7.99998H7.33325V6.89731C7.33325 6.00598 7.42659 5.68265 7.59992 5.35665C7.77066 5.0341 8.03456 4.77044 8.35725 4.59998C8.61192 4.46331 8.92859 4.38131 9.48192 4.34598C9.70125 4.33198 9.98525 4.34931 10.3339 4.39931V5.66598H9.99992C9.38859 5.66598 9.13592 5.69465 8.98525 5.77531C8.89535 5.82155 8.82216 5.89474 8.77592 5.98465C8.69592 6.13531 8.66659 6.28465 8.66659 6.89665V7.99998H10.3333L9.99992 9.33331H8.66659V13.292ZM7.99992 14.6666C4.31792 14.6666 1.33325 11.682 1.33325 7.99998C1.33325 4.31798 4.31792 1.33331 7.99992 1.33331C11.6819 1.33331 14.6666 4.31798 14.6666 7.99998C14.6666 11.682 11.6819 14.6666 7.99992 14.6666Z" fill="black"/>
</svg>
