<svg width="16" height="16" viewBox="0 0 16 16" fill="none" xmlns="http://www.w3.org/2000/svg">
<path d="M1.33325 13.3333H14.6666V14.6666H1.33325V13.3333ZM2.66659 7.99998H3.99992V12.6666H2.66659V7.99998ZM5.99992 7.99998H7.33325V12.6666H5.99992V7.99998ZM8.66659 7.99998H9.99992V12.6666H8.66659V7.99998ZM11.9999 7.99998H13.3333V12.6666H11.9999V7.99998ZM1.33325 4.66665L7.99992 1.33331L14.6666 4.66665V7.33331H1.33325V4.66665ZM2.66659 5.49065V5.99998H13.3333V5.49065L7.99992 2.82398L2.66659 5.49065ZM7.99992 5.33331C7.82311 5.33331 7.65354 5.26308 7.52851 5.13805C7.40349 5.01303 7.33325 4.84346 7.33325 4.66665C7.33325 4.48984 7.40349 4.32027 7.52851 4.19524C7.65354 4.07022 7.82311 3.99998 7.99992 3.99998C8.17673 3.99998 8.3463 4.07022 8.47132 4.19524C8.59635 4.32027 8.66659 4.48984 8.66659 4.66665C8.66659 4.84346 8.59635 5.01303 8.47132 5.13805C8.3463 5.26308 8.17673 5.33331 7.99992 5.33331Z" fill="black"/>
</svg>
