<svg width="16" height="16" viewBox="0 0 16 16" fill="none" xmlns="http://www.w3.org/2000/svg">
<path d="M7.99992 13.3333C9.41441 13.3333 10.771 12.7714 11.7712 11.7712C12.7713 10.771 13.3333 9.41447 13.3333 7.99998C13.3333 6.58549 12.7713 5.22894 11.7712 4.22874C10.771 3.22855 9.41441 2.66665 7.99992 2.66665C6.58543 2.66665 5.22888 3.22855 4.22868 4.22874C3.22849 5.22894 2.66659 6.58549 2.66659 7.99998C2.66659 9.41447 3.22849 10.771 4.22868 11.7712C5.22888 12.7714 6.58543 13.3333 7.99992 13.3333ZM7.99992 14.6666C4.31792 14.6666 1.33325 11.682 1.33325 7.99998C1.33325 4.31798 4.31792 1.33331 7.99992 1.33331C11.6819 1.33331 14.6666 4.31798 14.6666 7.99998C14.6666 11.682 11.6819 14.6666 7.99992 14.6666ZM5.92659 8.77998L4.26125 8.26065C3.90125 8.15065 3.89925 7.90265 4.34192 7.72465L10.8306 5.21798C11.2073 5.06465 11.4206 5.25865 11.2986 5.74465L10.1939 10.958C10.1166 11.3293 9.89325 11.418 9.58325 11.2466L7.88259 9.98798L7.08992 10.7533C7.00859 10.832 6.94259 10.8993 6.81725 10.916C6.69259 10.9333 6.58992 10.896 6.51459 10.6893L5.93459 8.77531L5.92659 8.78065V8.77998Z" fill="black"/>
</svg>
