<svg width="16" height="16" viewBox="0 0 16 16" fill="none" xmlns="http://www.w3.org/2000/svg">
<path d="M4.83526 12.3293L5.31793 12.6113C6.13189 13.086 7.05765 13.3352 7.99993 13.3333C9.05476 13.3333 10.0859 13.0205 10.963 12.4345C11.84 11.8484 12.5236 11.0155 12.9273 10.041C13.331 9.06642 13.4366 7.99406 13.2308 6.9595C13.025 5.92493 12.517 4.97462 11.7712 4.22874C11.0253 3.48286 10.075 2.97491 9.04041 2.76912C8.00584 2.56334 6.93349 2.66895 5.95895 3.07262C4.98441 3.47629 4.15146 4.15988 3.56542 5.03694C2.97939 5.914 2.66659 6.94515 2.66659 7.99998C2.66659 8.95731 2.91793 9.87531 3.38926 10.6826L3.67059 11.1653L3.23526 12.766L4.83526 12.3293ZM1.33593 14.6666L2.23726 11.3546C1.64335 10.3365 1.33132 9.17864 1.33326 7.99998C1.33326 4.31798 4.31793 1.33331 7.99993 1.33331C11.6819 1.33331 14.6666 4.31798 14.6666 7.99998C14.6666 11.682 11.6819 14.6666 7.99993 14.6666C6.82178 14.6685 5.66437 14.3568 4.64659 13.7633L1.33593 14.6666ZM5.59393 4.87198C5.68326 4.86531 5.77326 4.86531 5.86259 4.86931C5.89859 4.87198 5.93459 4.87598 5.97059 4.87998C6.07659 4.89198 6.19326 4.95665 6.23259 5.04598C6.43126 5.49665 6.62459 5.95065 6.81126 6.40598C6.85259 6.50731 6.82793 6.63731 6.74926 6.76398C6.69516 6.84963 6.63663 6.93241 6.57393 7.01198C6.49859 7.10865 6.33659 7.28598 6.33659 7.28598C6.33659 7.28598 6.27059 7.36465 6.29593 7.46265C6.30526 7.49998 6.33593 7.55398 6.36393 7.59931L6.40326 7.66265C6.57393 7.94731 6.80326 8.23598 7.08326 8.50798C7.16326 8.58531 7.24126 8.66465 7.32526 8.73865C7.63726 9.01398 7.99059 9.23865 8.37193 9.40531L8.37526 9.40665C8.43193 9.43131 8.46059 9.44465 8.54326 9.47998C8.58459 9.49731 8.62726 9.51265 8.67059 9.52398C8.71537 9.53539 8.76253 9.53324 8.80609 9.51781C8.84965 9.50238 8.88764 9.47436 8.91526 9.43731C9.39793 8.85265 9.44193 8.81465 9.44593 8.81465V8.81598C9.47946 8.7847 9.5193 8.76097 9.56276 8.74636C9.60623 8.73176 9.65231 8.72663 9.69793 8.73131C9.73793 8.73398 9.77859 8.74131 9.81593 8.75798C10.1699 8.91998 10.7493 9.17265 10.7493 9.17265L11.1373 9.34665C11.2026 9.37798 11.2619 9.45198 11.2639 9.52331C11.2666 9.56798 11.2706 9.63998 11.2553 9.77198C11.2339 9.94465 11.1819 10.152 11.1299 10.2606C11.0943 10.3348 11.0471 10.4028 10.9899 10.462C10.9227 10.5326 10.849 10.5969 10.7699 10.654C10.7426 10.6746 10.7148 10.6946 10.6866 10.714C10.6037 10.7666 10.5185 10.8155 10.4313 10.8606C10.2596 10.9518 10.07 11.0042 9.87593 11.014C9.75259 11.0206 9.62926 11.03 9.50526 11.0233C9.49993 11.0233 9.12659 10.9653 9.12659 10.9653C8.17876 10.716 7.30219 10.249 6.56659 9.60131C6.41593 9.46865 6.27659 9.32598 6.13393 9.18398C5.54059 8.59398 5.09259 7.95731 4.82059 7.35598C4.68137 7.06084 4.60617 6.73958 4.59993 6.41331C4.59718 6.00855 4.72949 5.61442 4.97593 5.29331C5.02459 5.23065 5.07059 5.16531 5.14993 5.08998C5.23459 5.00998 5.28793 4.96731 5.34593 4.93798C5.42304 4.89933 5.50717 4.87666 5.59326 4.87131L5.59393 4.87198Z" fill="black"/>
</svg>
